# Blender 3.4.1
# www.blender.org
mtllib Box.mtl
o Cube
v -1.000000 -1.000000 1.000000
v -1.000000 1.000000 1.000000
v -1.000000 -1.000000 -1.000000
v -1.000000 1.000000 -1.000000
v 1.000000 -1.000000 1.000000
v 1.000000 1.000000 1.000000
v 1.000000 -1.000000 -1.000000
v 1.000000 1.000000 -1.000000
vn -1.0000 -0.0000 -0.0000
vn -0.0000 -0.0000 -1.0000
vn 1.0000 -0.0000 -0.0000
vn -0.0000 -0.0000 1.0000
vn -0.0000 -1.0000 -0.0000
vn -0.0000 1.0000 -0.0000
vt -0.002210 -2.000208
vt -0.002210 1.997311
vt -1.001590 0.997931
vt 0.997170 -2.000208
vt 0.997170 1.997311
vt 1.996550 0.997931
vt -0.002210 -1.000829
vt -1.001590 -0.001449
vt 0.997170 -1.000829
vt 1.996550 -0.001449
vt -0.002210 0.997931
vt 0.997170 0.997931
vt -0.002210 -0.001449
vt 0.997170 -0.001449
s 0
usemtl Material.001
f 1/1/1 2/4/1 4/9/1 3/7/1
f 3/7/2 4/9/2 8/14/2 7/13/2
f 7/13/3 8/14/3 6/12/3 5/11/3
f 5/11/4 6/12/4 2/5/4 1/2/4
f 3/8/5 7/13/5 5/11/5 1/3/5
f 8/14/6 4/10/6 2/6/6 6/12/6
